<?xml version="1.0" standalone="no"?>
<!DOCTYPE svg PUBLIC "-//W3C//DTD SVG 20010904//EN"
 "http://www.w3.org/TR/2001/REC-SVG-20010904/DTD/svg10.dtd">
<svg version="1.0" xmlns="http://www.w3.org/2000/svg"
 width="2133.000000pt" height="2133.000000pt" viewBox="0 0 2133.000000 2133.000000"
 preserveAspectRatio="xMidYMid meet">
<metadata>
Created by potrace 1.11, written by Peter Selinger 2001-2013
</metadata>
<g transform="translate(0.000000,2133.000000) scale(0.100000,-0.100000)"
fill="#000000" stroke="none">
<path d="M9170 21324 c-190 -20 -337 -40 -450 -60 -414 -76 -817 -209 -1195
-394 -462 -227 -849 -504 -1216 -870 -228 -228 -401 -437 -567 -685 -304 -456
-510 -916 -640 -1433 -21 -84 -43 -157 -48 -161 -5 -5 -34 -18 -64 -29 -148
-54 -363 -141 -490 -199 -296 -134 -417 -195 -630 -317 -340 -196 -605 -392
-835 -621 -281 -280 -450 -560 -523 -869 -23 -97 -26 -132 -27 -281 0 -128 5
-191 19 -255 67 -308 227 -585 501 -869 400 -414 991 -773 1812 -1102 67 -27
127 -49 133 -49 7 0 10 -1258 10 -4097 l-1 -4098 -67 -54 c-113 -90 -174 -143
-255 -221 -68 -65 -115 -115 -272 -295 -59 -68 -209 -279 -276 -390 -263 -436
-416 -880 -486 -1405 -14 -108 -17 -270 -20 -1170 -3 -763 -1 -1061 7 -1105
26 -132 128 -246 256 -283 32 -9 1596 -12 6827 -12 l6786 0 58 22 c73 27 155
103 197 183 l31 60 3 1010 c2 690 0 1059 -8 1165 -29 395 -134 805 -293 1151
-87 187 -100 215 -112 229 -7 8 -27 42 -44 75 -72 137 -257 400 -378 538 -134
153 -366 374 -482 458 l-60 44 -1 2965 c0 1631 3 3474 7 4096 l6 1130 171 69
c775 309 1391 686 1780 1089 441 457 606 961 475 1451 -140 521 -598 1010
-1354 1445 -171 98 -490 258 -670 335 -92 40 -443 179 -496 198 -11 4 -26 45
-48 134 -224 895 -686 1675 -1351 2282 -149 135 -164 148 -265 227 -612 480
-1333 799 -2082 920 -309 50 -227 47 -1833 49 -828 1 -1521 1 -1540 -1z m3868
-5123 c2 -6 8 -9 13 -5 5 3 9 0 9 -5 0 -6 -5 -11 -12 -11 -6 0 -8 -3 -5 -6 4
-4 13 -1 21 5 11 10 19 7 37 -11 12 -13 19 -17 15 -10 -14 23 5 12 54 -34 28
-26 50 -53 50 -60 0 -8 4 -14 9 -14 8 0 29 -43 35 -71 2 -8 6 -21 9 -29 28
-76 36 -114 26 -127 -10 -11 -8 -12 6 -7 15 6 17 3 13 -14 -4 -12 -2 -20 2
-17 8 5 19 -18 24 -49 1 -6 9 -24 18 -41 8 -16 13 -36 11 -42 -3 -7 0 -13 5
-13 11 0 23 -26 21 -45 -1 -5 -5 -9 -11 -7 -5 1 -7 -2 -3 -7 3 -6 11 -8 18 -5
12 4 41 -49 40 -73 0 -7 2 -11 6 -8 11 6 43 -54 35 -67 -4 -7 -3 -8 4 -4 7 4
12 1 12 -7 0 -8 7 -20 15 -27 9 -7 13 -22 10 -34 -3 -12 -2 -15 1 -8 7 16 34
-3 34 -24 0 -8 5 -14 11 -14 6 0 8 -7 5 -17 -4 -10 -4 -14 0 -10 4 4 16 0 26
-9 13 -12 15 -21 7 -30 -7 -8 -7 -14 1 -19 8 -5 7 -11 -1 -21 -10 -12 -10 -15
2 -12 8 2 13 -4 11 -12 -1 -10 3 -8 15 6 17 20 17 20 48 -15 16 -19 29 -38 28
-43 -2 -4 0 -8 5 -8 4 0 22 -13 39 -29 22 -20 28 -32 21 -39 -8 -8 -5 -9 9 -6
14 4 31 -7 60 -39 23 -25 44 -43 46 -41 3 3 7 -2 11 -11 3 -9 2 -13 -3 -10 -5
3 -12 1 -15 -3 -3 -5 9 -8 27 -8 22 1 31 -3 29 -12 -1 -8 2 -11 8 -7 13 8 42
-14 35 -25 -3 -5 0 -12 6 -16 8 -4 9 -3 5 4 -12 20 2 14 75 -29 39 -24 68 -47
65 -54 -2 -6 2 -12 10 -12 7 0 11 4 8 9 -3 4 2 5 10 2 9 -3 13 -11 9 -17 -3
-6 -1 -7 6 -3 6 4 23 0 36 -8 14 -9 25 -14 25 -12 0 3 28 -8 63 -23 34 -16 77
-32 95 -36 19 -4 30 -11 26 -17 -4 -6 -3 -9 2 -5 10 5 24 3 188 -32 54 -12
137 -24 183 -28 57 -4 87 -11 90 -20 3 -7 9 -13 15 -13 5 0 6 5 3 10 -3 6 3
10 14 10 11 0 23 -5 26 -10 4 -6 12 -7 18 -3 8 4 8 2 -1 -9 -10 -13 -10 -17 4
-22 10 -4 22 -2 28 4 8 8 5 9 -9 4 -16 -5 -17 -4 -9 5 9 10 18 9 43 -4 17 -9
29 -20 26 -25 -3 -6 0 -7 7 -5 19 7 103 -80 93 -96 -5 -8 -4 -10 3 -5 17 10
53 -78 64 -156 7 -51 6 -2284 -1 -2477 -4 -97 -23 -236 -33 -243 -10 -6 -10
-8 1 -8 8 0 11 -6 7 -17 -4 -9 -9 -47 -12 -84 -5 -72 -76 -454 -84 -454 -1 0
-3 -12 -5 -28 -2 -15 -11 -53 -21 -85 -9 -31 -18 -64 -19 -72 -1 -9 -9 -38
-18 -65 -9 -28 -32 -97 -51 -155 -19 -58 -38 -104 -42 -102 -5 2 -10 -2 -13
-9 -2 -7 1 -9 8 -5 13 8 14 4 5 -18 -3 -9 -11 -13 -17 -9 -6 3 -7 1 -3 -6 9
-14 -2 -53 -14 -46 -4 3 -6 -5 -2 -17 4 -16 2 -19 -8 -13 -9 5 -11 4 -6 -3 4
-7 1 -26 -7 -44 -8 -18 -31 -72 -52 -121 -33 -75 -40 -86 -53 -75 -13 11 -14
10 -5 -6 12 -21 -13 -100 -29 -90 -5 3 -7 2 -6 -3 4 -13 -20 -73 -29 -73 -5 0
-15 6 -23 13 -8 6 -6 2 3 -9 17 -21 17 -23 -2 -54 -12 -21 -21 -27 -24 -19 -2
8 -3 5 -1 -6 2 -11 -21 -61 -54 -114 -31 -51 -64 -106 -72 -122 -9 -17 -18
-27 -21 -24 -3 3 -6 -1 -6 -8 0 -10 -45 -85 -69 -116 -2 -2 -11 2 -20 10 -16
13 -16 12 -4 -7 11 -18 10 -25 -10 -52 -13 -17 -28 -28 -33 -25 -6 3 -7 1 -3
-5 4 -7 4 -17 0 -23 -5 -8 -9 -8 -14 1 -5 8 -9 7 -13 -5 -4 -9 -3 -13 3 -10
20 12 9 -9 -27 -54 -20 -25 -41 -50 -48 -56 -6 -5 -14 -18 -18 -28 -4 -9 -13
-20 -22 -23 -16 -7 -48 13 -40 25 2 4 -2 8 -10 8 -13 0 -13 -3 0 -17 10 -12
12 -19 4 -27 -8 -8 -7 -13 2 -18 7 -5 10 -4 5 3 -3 6 -2 13 3 16 5 4 13 2 16
-4 10 -16 -15 -42 -33 -35 -11 4 -12 2 -5 -7 8 -10 2 -21 -19 -43 -17 -16 -27
-23 -23 -15 5 9 4 12 -1 7 -5 -5 -9 -14 -9 -22 0 -19 -176 -205 -188 -198 -6
3 -7 1 -3 -5 8 -13 -22 -44 -35 -37 -5 4 -6 -1 -3 -9 3 -9 2 -16 -3 -16 -6 0
-46 -35 -89 -77 -118 -116 -201 -186 -213 -178 -6 3 -18 -1 -27 -9 -8 -9 -12
-16 -7 -16 5 0 14 5 21 12 9 9 12 9 12 0 0 -7 -3 -12 -7 -12 -5 0 -28 -18 -53
-40 -39 -35 -46 -38 -59 -25 -19 19 -7 32 14 15 9 -8 15 -8 15 -2 0 6 -9 14
-20 17 -12 4 -17 11 -14 18 4 7 3 8 -2 4 -12 -12 -14 -68 -1 -60 5 3 8 0 5 -8
-3 -8 -14 -19 -26 -25 -12 -6 -19 -14 -14 -19 4 -5 1 -5 -5 -1 -7 4 -13 3 -13
-1 0 -9 -85 -73 -97 -73 -3 0 -2 6 3 13 5 7 1 5 -8 -5 -10 -11 -19 -14 -23 -8
-3 5 -12 10 -18 10 -7 0 -4 -5 6 -11 25 -15 22 -21 -29 -53 -39 -25 -49 -27
-70 -17 -14 6 -23 7 -19 2 3 -5 1 -12 -4 -16 -6 -3 -8 -12 -5 -19 6 -15 -36
-46 -57 -43 -8 2 -20 7 -28 11 -9 6 -12 5 -7 -2 3 -6 2 -13 -4 -17 -6 -4 -8
-10 -5 -15 7 -11 -43 -42 -57 -34 -7 4 -8 3 -4 -4 6 -11 0 -14 -21 -11 -3 0
-10 -7 -15 -16 -9 -15 -12 -15 -33 -1 -21 14 -23 14 -20 -2 1 -9 8 -16 15 -14
6 1 9 -2 5 -8 -3 -5 -10 -10 -15 -10 -4 0 -40 -18 -79 -41 -39 -22 -77 -42
-85 -43 -8 -1 -21 -8 -30 -15 -8 -7 -21 -9 -27 -5 -7 4 -9 3 -6 -3 3 -5 -17
-20 -46 -33 -29 -13 -85 -39 -125 -57 -40 -19 -78 -31 -85 -27 -7 4 -9 3 -4
-1 7 -9 -41 -28 -273 -107 -632 -216 -1285 -289 -1945 -217 -144 15 -346 47
-445 69 -339 78 -539 136 -715 207 -60 25 -132 54 -160 65 -56 22 -378 182
-406 202 -11 7 -16 16 -11 21 4 5 1 5 -5 1 -16 -9 -74 24 -66 37 3 6 1 7 -6 3
-6 -4 -23 2 -37 13 -15 12 -30 21 -34 21 -17 0 -108 68 -102 76 4 4 1 4 -5 0
-11 -6 -95 42 -113 64 -3 3 -21 16 -40 28 -19 11 -47 33 -62 47 -15 14 -29 24
-32 23 -4 -3 -78 54 -190 145 -108 89 -147 127 -141 137 3 6 0 7 -7 5 -8 -3
-36 18 -66 50 -29 30 -55 55 -58 55 -4 0 -45 39 -91 88 -74 78 -81 88 -66 100
9 6 12 12 7 12 -6 0 -15 -5 -20 -10 -7 -7 -36 19 -87 78 -135 156 -177 211
-171 230 4 12 3 13 -3 4 -7 -9 -26 9 -69 68 -32 44 -66 93 -74 109 -9 15 -29
45 -46 67 -110 141 -315 529 -423 802 -84 210 -200 577 -187 590 3 3 2 10 -3
16 -21 25 -105 506 -110 626 0 8 -5 51 -11 95 -15 116 -25 2469 -11 2575 11
81 31 134 60 158 12 10 12 12 1 6 -13 -7 -13 -6 -1 12 34 45 65 73 74 67 6 -3
7 -1 3 5 -9 15 67 58 139 77 38 10 80 14 115 11 515 -49 1287 -52 1710 -7 47
5 92 9 100 9 24 0 283 31 424 52 71 10 133 17 138 14 4 -3 14 -2 21 3 6 4 46
13 87 20 41 6 125 21 185 33 61 12 124 22 142 24 18 2 46 9 63 16 25 11 35 10
55 0 14 -7 28 -10 32 -7 3 4 -1 7 -11 7 -54 0 72 42 134 45 8 0 21 4 28 9 7 4
22 4 35 1 18 -5 19 -4 7 5 -12 9 -6 10 25 6 30 -4 36 -3 25 5 -11 8 -8 9 13 4
20 -4 27 -2 22 5 -4 7 -1 10 6 9 8 -1 27 3 42 9 15 7 31 11 35 10 7 -2 51 10
156 43 33 11 62 17 64 14 3 -3 11 0 19 6 7 6 13 8 13 4 0 -4 6 -3 13 2 19 15
125 45 136 39 5 -3 14 1 21 9 7 8 16 12 21 10 4 -3 16 -1 26 4 34 18 103 41
103 34 0 -4 5 -2 12 5 15 15 42 16 32 0 -4 -7 -3 -8 5 -4 6 4 9 11 6 16 -3 4
19 14 48 21 28 6 61 18 72 25 12 8 30 15 40 17 11 2 27 7 35 10 52 22 68 25
78 15 7 -7 16 -6 29 1 16 11 16 11 -4 6 -14 -4 -23 -2 -23 4 0 11 20 15 49 12
7 -2 10 2 7 8 -6 10 65 36 91 34 7 0 11 3 8 7 -2 4 14 13 37 19 23 7 53 18 67
24 14 5 29 10 34 9 4 -1 7 3 7 9 0 6 7 8 16 5 8 -3 12 -2 9 4 -9 14 9 12 24
-2 10 -11 11 -9 5 6 -6 16 -4 18 10 13 10 -4 15 -3 11 3 -3 6 0 10 8 10 7 0
41 14 75 30 62 30 91 39 62 20 -11 -8 -7 -9 15 -4 37 8 45 14 19 14 -12 0 -7
6 16 17 19 8 56 26 83 39 26 14 47 22 47 18 0 -3 7 2 16 11 10 10 24 13 36 9
15 -4 18 -3 13 7 -6 9 -2 11 13 7 12 -4 20 -3 17 2 -7 11 22 33 35 25 5 -3 10
-2 10 3 0 10 33 24 59 26 8 1 16 7 19 14 3 9 8 10 16 3 8 -6 17 -6 26 1 12 8
12 9 -2 4 -10 -3 -18 -2 -18 3 0 12 50 32 63 25 7 -4 9 -4 5 1 -12 12 49 46
68 38 11 -4 15 -2 11 5 -9 13 51 45 66 35 5 -3 7 -1 4 4 -4 6 0 14 9 17 10 4
13 2 8 -7 -4 -6 3 -2 15 10 23 24 81 58 81 48 0 -4 12 3 26 14 15 11 31 18 38
14 6 -3 8 -2 3 2 -10 12 140 98 156 89 6 -4 9 -4 5 1 -11 11 150 108 168 101
8 -3 13 -2 10 3 -8 13 31 44 45 35 8 -4 10 -3 5 4 -7 12 47 46 57 36 3 -3 10
3 15 13 6 10 28 27 49 38 21 11 40 22 43 25 16 16 100 70 109 70 6 0 11 5 11
11 0 6 7 8 16 5 8 -3 12 -2 9 4 -3 6 1 11 9 11 18 2 25 3 46 12 8 3 22 8 30
11 26 10 184 -1 188 -13z m602 -994 c0 -18 -15 -17 -15 1 0 4 -4 13 -8 19 -6
9 -3 11 7 7 9 -3 16 -15 16 -27z m-470 -6955 c0 -13 -12 -22 -22 -16 -10 6 -1
24 13 24 5 0 9 -4 9 -8z m-96 -74 c-3 -4 -12 -8 -20 -8 -8 0 -13 4 -10 8 3 5
12 9 20 9 8 0 13 -4 10 -9z m-4296 -1473 c-3 -3 -9 2 -12 12 -6 14 -5 15 5 6
7 -7 10 -15 7 -18z m4010 -360 c-3 -3 -9 2 -12 12 -6 14 -5 15 5 6 7 -7 10
-15 7 -18z m-4250 -27 c-2 -7 3 -12 10 -10 8 1 11 -2 7 -8 -5 -8 -11 -8 -21 1
-7 6 -11 15 -8 20 8 13 14 11 12 -3z m4448 -195 c-7 -7 -21 -4 -21 5 0 4 -4
14 -9 22 -6 9 -1 7 12 -4 12 -11 20 -21 18 -23z m-4779 -126 c0 -8 -6 -14 -14
-14 -9 0 -10 4 -2 14 6 7 12 13 14 13 1 0 2 -6 2 -13z m4933 -13 c0 -8 -19
-13 -24 -6 -3 5 1 9 9 9 8 0 15 -2 15 -3z m69 -41 c2 -2 -3 -3 -11 -3 -9 0
-19 7 -22 16 -6 15 -4 15 11 3 10 -7 20 -15 22 -16z m21 -37 c0 -2 -7 -7 -16
-10 -8 -3 -12 -2 -9 4 6 10 25 14 25 6z m245 -124 c-3 -3 -11 0 -18 7 -9 10
-8 11 6 5 10 -3 15 -9 12 -12z m-5610 -2 c-3 -5 -14 -10 -23 -9 -14 0 -13 2 3
9 27 11 27 11 20 0z"/>
<path d="M13137 16139 c6 -6 10 -17 9 -23 -2 -6 -1 -8 1 -3 3 4 10 4 16 0 7
-3 3 3 -7 15 -11 12 -22 22 -25 22 -3 0 0 -5 6 -11z"/>
<path d="M13180 16091 c0 -10 19 -25 25 -20 1 2 -3 10 -11 17 -8 7 -14 8 -14
3z"/>
<path d="M13200 16035 c0 -5 5 -17 10 -25 5 -8 10 -10 10 -5 0 6 -5 17 -10 25
-5 8 -10 11 -10 5z"/>
<path d="M12427 15963 c-4 -3 -7 -11 -7 -17 0 -6 5 -5 12 2 6 6 9 14 7 17 -3
3 -9 2 -12 -2z"/>
<path d="M13300 15761 c0 -6 4 -13 10 -16 6 -3 7 1 4 9 -7 18 -14 21 -14 7z"/>
<path d="M12090 15756 c0 -3 9 -10 20 -16 11 -6 20 -8 20 -6 0 3 -9 10 -20 16
-11 6 -20 8 -20 6z"/>
<path d="M13280 15751 c0 -6 4 -13 10 -16 6 -3 7 1 4 9 -7 18 -14 21 -14 7z"/>
<path d="M11964 15676 c11 -9 24 -16 30 -16 12 0 7 5 -24 19 -24 11 -24 11 -6
-3z"/>
<path d="M11850 15620 c-8 -5 -10 -10 -5 -10 6 0 17 5 25 10 8 5 11 10 5 10
-5 0 -17 -5 -25 -10z"/>
<path d="M13587 15259 c7 -7 15 -10 18 -7 3 3 -2 9 -12 12 -14 6 -15 5 -6 -5z"/>
<path d="M11010 15186 c0 -2 7 -7 16 -10 8 -3 12 -2 9 4 -6 10 -25 14 -25 6z"/>
<path d="M10550 15040 c8 -5 20 -10 25 -10 6 0 3 5 -5 10 -8 5 -19 10 -25 10
-5 0 -3 -5 5 -10z"/>
<path d="M13800 15036 c0 -2 8 -10 18 -17 15 -13 16 -12 3 4 -13 16 -21 21
-21 13z"/>
<path d="M13846 14948 c3 -5 10 -6 15 -3 13 9 11 12 -6 12 -8 0 -12 -4 -9 -9z"/>
<path d="M13956 14893 c-6 -14 -5 -15 5 -6 7 7 10 15 7 18 -3 3 -9 -2 -12 -12z"/>
<path d="M13925 14891 c-3 -5 -2 -12 3 -15 5 -3 9 1 9 9 0 17 -3 19 -12 6z"/>
<path d="M14104 14794 c-18 -14 -18 -15 4 -4 12 6 22 13 22 15 0 8 -5 6 -26
-11z"/>
<path d="M14310 14706 c0 -2 7 -7 16 -10 8 -3 12 -2 9 4 -6 10 -25 14 -25 6z"/>
<path d="M15066 14495 c8 -12 12 -24 10 -26 -2 -2 9 -4 24 -4 22 -1 27 2 18
12 -5 7 -14 11 -18 8 -9 -6 -32 19 -25 27 3 2 -1 5 -9 5 -12 0 -12 -3 0 -22z"/>
<path d="M6290 14500 c-9 -6 -10 -10 -3 -10 6 0 15 5 18 10 8 12 4 12 -15 0z"/>
<path d="M15120 14391 c0 -6 4 -13 10 -16 6 -3 7 1 4 9 -7 18 -14 21 -14 7z"/>
<path d="M14986 10735 c-9 -26 -7 -32 5 -12 6 10 9 21 6 23 -2 3 -7 -2 -11
-11z"/>
<path d="M14885 10519 c-4 -6 -5 -12 -2 -15 2 -3 7 2 10 11 7 17 1 20 -8 4z"/>
<path d="M14919 10513 c-13 -16 -12 -17 4 -4 16 13 21 21 13 21 -2 0 -10 -8
-17 -17z"/>
<path d="M14830 10345 c-7 -9 -11 -17 -9 -20 3 -2 10 5 17 15 14 24 10 26 -8
5z"/>
<path d="M14811 10254 c0 -11 3 -14 6 -6 3 7 2 16 -1 19 -3 4 -6 -2 -5 -13z"/>
<path d="M14741 10074 c0 -11 3 -14 6 -6 3 7 2 16 -1 19 -3 4 -6 -2 -5 -13z"/>
<path d="M14563 9753 c1 -17 4 -19 14 -11 7 6 13 16 13 22 0 6 -4 5 -9 -3 -7
-11 -9 -11 -14 0 -3 8 -4 4 -4 -8z"/>
<path d="M14501 9674 c0 -11 3 -14 6 -6 3 7 2 16 -1 19 -3 4 -6 -2 -5 -13z"/>
<path d="M14446 9548 c3 -5 10 -6 15 -3 13 9 11 12 -6 12 -8 0 -12 -4 -9 -9z"/>
<path d="M14206 9242 c-3 -5 1 -9 9 -9 8 0 12 4 9 9 -3 4 -7 8 -9 8 -2 0 -6
-4 -9 -8z"/>
<path d="M14097 9153 c3 -7 6 -13 8 -13 2 0 5 6 8 13 3 8 -1 14 -8 14 -7 0
-11 -6 -8 -14z"/>
<path d="M14137 9133 c-4 -3 -7 -11 -7 -17 0 -6 5 -5 12 2 6 6 9 14 7 17 -3 3
-9 2 -12 -2z"/>
<path d="M14028 9005 c-25 -34 -22 -43 3 -11 12 15 20 29 18 31 -2 1 -12 -7
-21 -20z"/>
<path d="M13949 8913 c-13 -16 -12 -17 4 -4 9 7 17 15 17 17 0 8 -8 3 -21 -13z"/>
<path d="M13846 8831 c-4 -5 -2 -12 3 -15 5 -4 12 -2 15 3 4 5 2 12 -3 15 -5
4 -12 2 -15 -3z"/>
<path d="M13705 8691 c-3 -5 -2 -12 3 -15 5 -3 9 1 9 9 0 17 -3 19 -12 6z"/>
<path d="M13490 8516 c7 -7 13 -7 20 0 6 6 3 10 -10 10 -13 0 -16 -4 -10 -10z"/>
<path d="M13365 8439 c-4 -5 2 -6 11 -2 12 4 15 3 10 -5 -10 -16 -1 -15 12 1
8 10 6 13 -8 14 -11 1 -22 -2 -25 -8z"/>
<path d="M13203 8306 c3 -7 0 -20 -6 -27 -10 -11 -9 -11 5 0 15 11 15 41 1 41
-3 0 -3 -6 0 -14z"/>
<path d="M12970 8166 c0 -2 7 -7 16 -10 8 -3 12 -2 9 4 -6 10 -25 14 -25 6z"/>
<path d="M12806 8055 c4 -8 8 -15 10 -15 2 0 4 7 4 15 0 8 -4 15 -10 15 -5 0
-7 -7 -4 -15z"/>
<path d="M12625 7950 c-3 -6 1 -7 9 -4 18 7 21 14 7 14 -6 0 -13 -4 -16 -10z"/>
<path d="M12585 7930 c-3 -6 1 -7 9 -4 18 7 21 14 7 14 -6 0 -13 -4 -16 -10z"/>
</g>
</svg>
